<?xml version="1.0" encoding="UTF-8"?>
<svg width="36px" height="36px" viewBox="0 0 36 36" version="1.1" xmlns="http://www.w3.org/2000/svg" xmlns:xlink="http://www.w3.org/1999/xlink">
    <!-- Generator: Sketch 54.1 (76490) - https://sketchapp.com -->
    <title>noun_Cow_562380</title>
    <desc>Created with Sketch.</desc>
    <g id="Page-1" stroke="none" stroke-width="1" fill="none" fill-rule="evenodd">
        <g id="Betsee(not-login)" transform="translate(-25.000000, -12.000000)" fill="#FFFFFF">
            <g id="noun_Cow_562380" transform="translate(25.000000, 12.000000)">
                <path d="M31,2.7888 C31,1.2512 29.7488,0 28.2108,0 C27.064,0 26.0476,0.688 25.6216,1.7528 L24.7228,4 L11.2772,4 L10.3784,1.7532 C9.9524,0.688 8.936,0 7.7892,0 C6.2512,0 5,1.2512 5,2.7888 L5,7 L0,7 L0,9.5 C0,11.43 1.57,13 3.5,13 C4.0372,13 4.5448,12.8748 5,12.6576 L5,18.3432 C5,21.9652 6.4388,25.4388 9,28 L9,30 C9,33.3136 11.6864,36 15,36 L21,36 C24.3136,36 27,33.3136 27,30 L27,28 C29.5612,25.4388 31,21.9652 31,18.3432 L31,12.6576 C31.4552,12.8748 31.9628,13 32.5,13 C34.43,13 36,11.43 36,9.5 L36,7 L31,7 L31,2.7888 Z M5,9.5 C5,10.3272 4.3268,11 3.5,11 C2.6732,11 2,10.3272 2,9.5 L2,9 L5,9 L5,9.5 Z M7,2.7888 C7,2.354 7.354,2 7.7892,2 C8.1136,2 8.4008,2.1944 8.5212,2.496 L9.1228,4 L7,4 L7,2.7888 Z M24,30 C24,31.654 22.654,33 21,33 L15,33 C13.346,33 12,31.654 12,30 L12,29 C12,27.8972 12.8972,27 14,27 L22,27 C23.1028,27 24,27.8972 24,29 L24,30 Z M28,18.3432 C28,21.1896 26.8916,23.866 24.8788,25.8788 L24.7,26.0576 C23.9876,25.4032 23.0412,25 22,25 L14,25 C12.9588,25 12.0124,25.4032 11.3,26.0572 L11.1212,25.8784 C9.1084,23.866 8,21.1896 8,18.3432 L8,7 L28,7 L28,18.3432 Z M29,4 L26.8772,4 L27.4788,2.4956 C27.5992,2.1944 27.8868,2 28.2108,2 C28.646,2 29,2.354 29,2.7888 L29,4 Z M34,9 L34,9.5 C34,10.3272 33.3268,11 32.5,11 C31.6732,11 31,10.3272 31,9.5 L31,9 L34,9 Z" id="Shape" fill-rule="nonzero"></path>
                <circle id="Oval" cx="13.5" cy="15.5" r="2.5"></circle>
                <circle id="Oval-Copy" cx="22.5" cy="15.5" r="2.5"></circle>
                <rect id="Rectangle" fill-rule="nonzero" x="14" y="29" width="2" height="2"></rect>
                <rect id="Rectangle" fill-rule="nonzero" x="20" y="29" width="2" height="2"></rect>
            </g>
        </g>
    </g>
</svg>